<svg xmlns="http://www.w3.org/2000/svg" shape-rendering="geometricPrecision" text-rendering="geometricPrecision" image-rendering="optimizeQuality" fill-rule="evenodd" clip-rule="evenodd" viewBox="0 0 512 512"><path fill-rule="nonzero" d="M256.001 0c70.409 0 134.415 28.799 180.808 75.192C483.203 121.585 512 185.591 512 256.001c0 70.409-28.797 134.415-75.191 180.807C390.416 483.202 326.41 512 256.001 512c-70.409 0-134.416-28.798-180.809-75.192C28.799 390.416 0 326.41 0 256.001 0 185.59 28.798 121.585 75.192 75.192 121.585 28.798 185.59 0 256.001 0zm20.008 237.596c-5.49-5.459-5.514-14.338-.055-19.828 5.459-5.491 14.338-5.514 19.828-.055l66.277 65.843c5.435 5.404 5.512 14.159.216 19.66l-85.482 88.467c-5.369 5.581-14.246 5.753-19.827.384-5.58-5.369-5.753-14.246-.384-19.826l75.898-78.544-56.471-56.101zm-39.425-117.33c5.399-5.55 14.277-5.673 19.827-.274 5.55 5.399 5.673 14.276.274 19.827l-76.923 79.093 57.345 54.285c5.61 5.307 5.857 14.161.549 19.771-5.308 5.611-14.161 5.857-19.772.549l-66.956-63.382c-.3-.248-.594-.509-.878-.785-5.55-5.399-5.672-14.277-.274-19.827l86.808-89.257zm183.502-28.352c-42.116-42.116-100.203-68.26-164.085-68.26-63.885 0-121.971 26.144-164.087 68.26-42.116 42.116-68.26 100.202-68.26 164.087 0 63.882 26.144 121.969 68.26 164.085 42.116 42.117 100.203 68.26 164.087 68.26 63.884 0 121.97-26.143 164.085-68.26 42.117-42.115 68.261-100.201 68.261-164.085 0-63.884-26.144-121.971-68.261-164.087z"/></svg>